<svg width="320" height="258" viewBox="0 0 320 258" fill="none" xmlns="http://www.w3.org/2000/svg">
<g clip-path="url(#clip0_1597_21035)">
<path d="M166.5 69.8899C168.99 70.5099 170.91 70.5899 172.4 71.4499C175 72.9499 176.89 74.5899 177.2 78.4399C177.81 85.9199 179.52 93.3399 181.22 100.68C183.96 112.49 187.01 124.22 190.06 135.95C190.49 137.61 191.63 139.08 192.99 141.7C194.06 134.31 195.28 128.05 195.83 121.73C197.03 107.96 197.55 94.1199 199.02 80.3799C200.08 70.4599 202.14 60.6499 203.93 50.8199C204.29 48.8199 205.46 46.9699 206.23 45.1399C214.76 47.1099 217.47 51.9999 213.79 61.2099C221.65 56.6699 230.03 58.4599 234.63 53.7299C239.99 52.6199 244.34 51.9399 248.55 50.7799C253.45 49.4299 258.23 47.6699 263.06 46.0799C269.593 43.9199 274.92 46.0566 279.04 52.4899C272.15 54.7199 265.53 56.8799 258.89 58.9899C257.18 59.5399 255.4 59.8599 253.69 60.4199C244.8 63.3199 245.13 63.3499 244.68 72.5299C243.97 86.9599 242.77 101.37 241.78 115.79C241.11 125.46 240.47 135.12 239.71 144.78C239.52 147.22 238.94 149.63 238.55 151.96C229.12 153.96 225.66 150.36 227.06 141.46C228.74 130.75 229.73 119.92 230.76 109.13C231.91 97.1999 232.8 85.2499 233.73 73.2999C233.91 71.0199 233.76 68.7199 233.76 65.9199C226.67 67.4199 220.09 68.7499 213.57 70.3099C212.84 70.4799 212.05 71.9799 211.95 72.9199C211.17 80.8099 210.58 88.7099 209.87 96.6099C208.96 106.72 208.02 116.82 207.05 126.92C206.34 134.4 205.84 141.91 204.68 149.32C204.19 152.46 204.03 157.33 199.54 157.28C194.87 157.23 189.09 157.96 186.4 152.4C183.97 147.38 181.65 142.23 180.03 136.91C177.17 127.53 174.87 117.99 171.42 108.35C170.62 113.98 169.67 119.59 169.05 125.25C167.92 135.52 167.07 145.81 165.84 156.06C165.72 157.08 163.87 158.57 162.72 158.68C155.55 159.37 153.23 157.23 154.11 150.32C156.23 133.73 158.57 117.17 160.94 100.62C162.17 92.0199 163.63 83.4499 165.06 74.8799C165.32 73.2999 165.95 71.7799 166.51 69.8699L166.5 69.8899Z" fill="#F0AF2D"/>
<path d="M79.27 113.84C92.25 111.51 94.25 112.86 97.88 120.19C93.78 121.45 89.81 122.84 85.74 123.87C80.79 125.11 77.37 127.27 76.46 132.96C75.02 142 72.89 150.93 71.16 159.4C83.13 155.54 95.02 152.01 106.68 147.83C113.61 145.35 117.71 148.72 122.34 153.69C116.29 155.06 110.74 156.33 105.19 157.58C91.6 160.65 79.43 166.11 70.23 177.15C67.28 180.7 63.47 177.5 60.26 176.75C57.5 176.11 57.48 173.74 58.04 170.76C60.13 159.65 61.53 148.4 63.35 137.24C63.92 133.72 65.55 130.35 62.33 127.07C61.71 126.44 62.26 123.32 63.15 122.78C68.55 119.46 68.12 113.77 69.17 108.8C70.49 102.57 71.25 96.2201 72.41 88.9701C70.77 89.5501 69.63 90.2001 68.43 90.3101C66.45 90.5101 63.94 91.1101 62.54 90.1901C60.19 88.6401 58.55 86.0301 56.6 83.8601C58.8 82.2901 60.89 80.5501 63.21 79.1901C66.71 77.1301 70.2 74.8301 74.01 73.5801C77.43 72.4501 81.3 72.7801 84.92 72.1401C91.05 71.0601 97.18 69.9101 103.24 68.4701C109.11 67.0701 114.63 68.4001 118.14 72.6901C120.59 75.6901 121.05 80.5101 121.87 84.6201C124.79 99.3501 127.48 114.12 130.49 130.08C131.39 128.33 131.88 127.66 132.09 126.91C137.63 107.48 141.15 87.4301 149.95 69.0201C151.64 65.4801 153.89 62.2101 155.84 58.8001C158.3 54.5201 161.45 55.9701 164.51 57.8401C165.98 58.7401 167.18 60.0801 168.79 61.4501C166.02 66.1801 162.55 70.8201 160.43 76.0001C156.91 84.5701 153.7 93.3501 151.37 102.3C147.05 118.9 143.44 135.68 139.58 152.4C139.17 154.16 139.4 156.11 138.77 157.76C137.95 159.9 139.52 163.44 135.29 163.8C130.48 164.2 126.07 162.35 125.3 158.62C123.06 147.75 121.09 136.82 119.14 125.89C117.58 117.17 116.26 108.42 114.73 99.6901C113.54 92.9301 112.2 86.1901 110.78 78.6801C102.08 80.5101 93.62 82.1401 85.26 84.2001C84.02 84.5101 82.65 86.7001 82.4 88.2001C81.16 95.5901 80.25 103.04 79.27 110.47C79.14 111.44 79.25 112.43 79.25 113.83L79.27 113.84Z" fill="#EFAE2E"/>
<path d="M250.66 168.09C233.68 170.94 216.69 173.75 199.72 176.64C172.68 181.25 145.65 185.91 118.61 190.53C117.8 190.67 116.96 190.56 116.13 190.57C115.12 189.93 114.11 189.29 113.1 188.64C121.59 186.99 130.05 185.18 138.57 183.71C155.89 180.72 173.23 177.82 190.59 175.07C210.61 171.89 230.67 168.92 250.71 165.85C250.69 166.59 250.67 167.34 250.65 168.08L250.66 168.09Z" fill="#E4AE47"/>
<path d="M76.65 257.65C71.45 254.1 70.39 249.45 71.71 244.4C73.52 237.51 75.95 230.79 78.02 223.97C78.35 222.9 77.91 221.57 78.31 220.54C78.86 219.1 79.86 217.83 81.37 216.81C81.98 230.71 80.86 244.12 76.65 257.64V257.65ZM74.1 250.08C74.76 250.14 75.43 250.2 76.09 250.26C76.55 245.64 77 241.01 77.46 236.39C77.04 236.35 76.62 236.3 76.2 236.26C75.5 240.87 74.8 245.47 74.11 250.08H74.1Z" fill="#EEB136"/>
<path d="M30.65 255.35C30.92 253.3 30.49 250.69 31.59 249.29C37.09 242.3 42.95 235.59 48.82 228.9C49.41 228.22 50.96 228.38 52.06 228.15C52.15 229.07 52.66 230.31 52.25 230.87C46.02 239.31 39.66 247.65 33.34 256.02C32.44 255.8 31.54 255.57 30.65 255.35Z" fill="#F0B134"/>
<path d="M4.13003 223.84C1.07003 220.55 0.0800323 218.34 4.41003 216.08C9.95003 213.18 15.17 209.66 20.66 206.66C22.13 205.86 24.1 205.95 25.84 205.63C26.07 206.18 26.3 206.73 26.52 207.28C19.08 212.79 11.63 218.29 4.13003 223.84Z" fill="#EFB033"/>
<path d="M0 177.63C8.92 167.93 20.65 166.82 32.65 165.5C32.0567 167.507 29.46 169.267 24.86 170.78C21.6 171.86 18.36 172.97 15.3 175C20.18 173.94 25.05 172.89 29.93 171.83C21.08 179.23 10.71 178.51 0 177.62V177.63Z" fill="#EEB139"/>
<path d="M274.78 85.13C284.3 83.34 292.41 81.56 300.6 80.36C305.02 79.71 309.76 79.22 314.41 83.68C310.23 84.56 306.9 85.56 303.5 85.92C295.51 86.77 287.49 87.45 279.46 87.87C278.16 87.94 276.77 86.34 274.78 85.13Z" fill="#F1B132"/>
<path d="M283.08 61.77C293.13 50.19 304.18 40.74 319.11 35.72C317.43 44.31 294.61 60.56 283.08 61.77Z" fill="#EDB038"/>
<path d="M287.82 2.30005C288.33 14.64 280.09 21.8101 273.44 29.76C272.34 31.08 269.87 31.2501 268.03 31.9501C267.98 29.8901 267.23 27.52 267.99 25.84C272.36 16.2301 279.04 8.46005 287.82 2.30005Z" fill="#F1B233"/>
<path d="M243.65 0C243.65 3.74 243.91 7.47 243.58 11.14C243.25 14.9 242.61 18.68 241.61 22.31C240.64 25.85 239.03 29.21 237.7 32.65C237.22 32.5 236.73 32.35 236.25 32.2C237.18 28.11 238.12 24.02 239.05 19.92L238.11 19.65C236.69 23.28 235.31 26.93 233.85 30.54C233.24 32.05 232.78 33.87 231.64 34.85C230.63 35.72 228.78 35.63 227.3 35.96C227.08 34.84 226.53 33.68 226.69 32.62C228.59 19.86 232.52 8.12 243.65 0Z" fill="#EEB138"/>
<path d="M113.1 188.64C114.11 189.28 115.12 189.92 116.13 190.57C107.39 192.89 98.52 194.8 89.95 197.63C80.44 200.78 71.24 204.85 61.83 208.32C59.66 209.12 57.2 209.13 54.87 209.51C54.66 208.69 54.45 207.87 54.24 207.05C65.07 202.92 75.75 198.34 86.77 194.82C95.33 192.08 104.31 190.66 113.1 188.65V188.64Z" fill="#F0B135"/>
<path d="M250.66 168.09C250.68 167.35 250.7 166.6 250.72 165.86C255.16 165.07 259.6 164.29 264.05 163.5C260.42 169.1 255.63 172.24 249.74 173.67C249.71 172.94 249.68 172.22 249.64 171.49C250.25 170.44 254.1 170.35 250.66 168.09ZM254.05 168.17C254 168.26 253.88 168.38 253.91 168.43C253.97 168.54 254.1 168.62 254.2 168.72C254.25 168.54 254.31 168.36 254.36 168.17C254.26 168.17 254.16 168.17 254.05 168.17Z" fill="#CFAB67"/>
<path d="M249.64 171.49C249.67 172.22 249.7 172.94 249.74 173.67C244.36 175.48 238.98 177.29 233.59 179.1C233.41 178.59 233.23 178.08 233.05 177.57C238.58 175.55 244.11 173.52 249.64 171.5V171.49Z" fill="#DFB25B"/>
<path d="M254.05 168.17C254.15 168.17 254.25 168.17 254.36 168.17C254.31 168.35 254.25 168.53 254.2 168.72C254.1 168.63 253.97 168.55 253.91 168.43C253.88 168.38 254 168.26 254.05 168.17Z" fill="#FEFEFE"/>
</g>
<defs>
<clipPath id="clip0_1597_21035">
<rect width="319.12" height="257.65" fill="white"/>
</clipPath>
</defs>
</svg>
