<?xml version="1.0" encoding="utf-8"?>
<!-- Generator: Adobe Illustrator 28.0.0, SVG Export Plug-In . SVG Version: 6.00 Build 0)  -->
<svg version="1.1" id="Calque_1" xmlns="http://www.w3.org/2000/svg" xmlns:xlink="http://www.w3.org/1999/xlink" x="0px" y="0px"
	 viewBox="0 0 221.36 193.69" style="enable-background:new 0 0 221.36 193.69;" xml:space="preserve">
<style type="text/css">
	.st0{opacity:0.8;fill:#FFFFFF;}
</style>
<path class="st0" d="M64.46,14.18l-4.5,13.49h-32.3C12.41,27.67,0,40.08,0,55.34v110.68c0,15.26,12.41,27.67,27.67,27.67h166.02
	c15.26,0,27.67-12.41,27.67-27.67V55.34c0-15.26-12.41-27.67-27.67-27.67h-32.3l-4.5-13.49C154.09,5.71,146.18,0,137.23,0H84.14
	C75.19,0,67.27,5.71,64.46,14.18z M110.68,69.18c22.92,0,41.51,18.58,41.51,41.51s-18.58,41.51-41.51,41.51
	s-41.51-18.58-41.51-41.51S87.76,69.18,110.68,69.18z"/>
</svg>
