<svg xmlns="http://www.w3.org/2000/svg" viewBox="0 0 24 24" width="24px" height="24px">
  <path d="M 7.5996094 4 C 4.4996094 4 2 6.4996094 2 9.5996094 C 2 13.999609 12 22 12 22 C 12 22 22 13.999609 22 9.5996094 C 22 6.4996094 19.500391 4 16.400391 4 C 14.600391 4 13 4.9007813 12 6.3007812 C 11 4.9007813 9.3996094 4 7.5996094 4 z M 7.5996094 6 C 9.9996094 6 12 9 12 9 C 12 9 13.900391 6 16.400391 6 C 18.400391 6 20 7.5996094 20 9.5996094 C 20 11.599609 16.1 16.000391 12 19.400391 C 7.9 15.900391 4 11.499609 4 9.5996094 C 4 7.5996094 5.5996094 6 7.5996094 6 z" fill="#303030" />
</svg>