<svg xmlns="http://www.w3.org/2000/svg" viewBox="0 0 24 24" width="24px" height="24px">
  <path d="M 12 3 C 10.906937 3 10 3.9069372 10 5 L 10 7 L 8.8007812 7 C 8.3027812 7 6.9763594 7.152875 5.4433594 8.546875 L 2 11.544922 L 2 14.197266 L 6.7734375 10.039062 C 7.8614375 9.0500625 8.6527813 9 8.8007812 9 L 10 9 L 10 12.666016 C 9.9620475 12.693088 9.8980629 12.73288 9.8632812 12.757812 C 8.7432812 13.469812 7.7265625 14.181641 7.7265625 14.181641 C 7.2745625 14.498641 7.1644687 15.121219 7.4804688 15.574219 C 7.7974688 16.026219 8.4200469 16.137313 8.8730469 15.820312 C 8.8730469 15.820312 9.8554688 15.131063 10.980469 14.414062 C 13.178469 12.844062 13.567609 13.317109 13.849609 13.662109 C 14.364609 14.245109 14.225422 14.697906 12.357422 16.378906 C 12.173422 16.544906 11.991406 16.708094 11.816406 16.871094 L 11.503906 17.164062 C 10.252906 18.347062 9.5637813 19 6.8007812 19 L 2 19 L 2 21 L 6.8007812 21 C 8.492891 21 9.6354384 20.745082 10.523438 20.345703 C 10.888291 20.746132 11.421513 21 12 21 L 20 21 C 21.093063 21 22 20.093063 22 19 L 22 5 C 22 3.9069372 21.093063 3 20 3 L 12 3 z M 13 5 L 19 5 A 1 1 0 0 0 20 6 L 20 18 A 1 1 0 0 0 19 19 L 13 19 C 13 18.852853 12.965356 18.715694 12.908203 18.589844 L 13.183594 18.330078 C 13.349594 18.175078 13.522266 18.020281 13.697266 17.863281 C 14.491728 17.147681 15.579682 16.146334 15.972656 14.998047 C 15.981964 14.998133 15.990672 15 16 15 C 17.657 15 19 13.657 19 12 C 19 10.343 17.657 9 16 9 C 14.582475 9 13.401592 9.9851464 13.087891 11.306641 C 12.715942 11.327978 12.352556 11.429067 12 11.556641 L 12 6 A 1 1 0 0 0 13 5 z M 16 6 A 1 1 0 0 0 16 8 A 1 1 0 0 0 16 6 z M 16 16 A 1 1 0 0 0 16 18 A 1 1 0 0 0 16 16 z" fill="#1B1B22" />
</svg>