<svg xmlns="http://www.w3.org/2000/svg" viewBox="0 0 24 24" width="24px" height="24px">
  <path d="M 13.5625 2.25 L 7.5488281 8.2636719 C 7.1978281 8.6156719 7 9.0928438 7 9.5898438 L 7 19.125 C 7 20.161 7.839 21 8.875 21 L 17.03125 21 C 17.77225 21 18.443141 20.564719 18.744141 19.886719 L 21.748047 13.130859 C 21.914047 12.756859 22 12.351406 22 11.941406 L 22 11 C 22 9.964 21.036 9 20 9 L 14 9 C 14 9 15.4385 5.133125 15.4375 4.453125 C 15.4375 2.697125 13.5625 2.25 13.5625 2.25 z M 2 9 L 2 21 L 5 21 L 5 9 L 2 9 z" fill="#1B1B22" />
</svg>