<svg xmlns="http://www.w3.org/2000/svg" viewBox="0 0 24 24" width="24px" height="24px">
  <path d="M 7.5 2 C 4.464844 2 2 4.464844 2 7.5 C 2 10.535156 4.464844 13 7.5 13 C 8.488281 13 9.433594 12.714844 10.25 12.25 L 13 15.375 L 13 20 L 9 20 L 9 22 L 19 22 L 19 20 L 15 20 L 15 15.375 L 21.75 7.75 L 22 7.46875 L 22 6 L 12.75 6 C 12.144531 3.679688 9.984375 2 7.5 2 Z M 7.5 4 C 8.890625 4 10.089844 4.839844 10.625 6 L 6 6 L 6 7.46875 L 6.25 7.75 L 8.84375 10.6875 C 8.402344 10.882813 7.9375 11 7.5 11 C 5.535156 11 4 9.464844 4 7.5 C 4 5.535156 5.535156 4 7.5 4 Z M 9.125 8 L 18.875 8 L 18 9 L 12 9 L 15.0625 12.3125 L 14 13.5 Z" fill="#1B1B22" />
</svg>