<?xml version="1.0" encoding="utf-8"?>
<!-- Generator: Adobe Illustrator 28.0.0, SVG Export Plug-In . SVG Version: 6.00 Build 0)  -->
<svg version="1.1" id="Calque_1" xmlns="http://www.w3.org/2000/svg" xmlns:xlink="http://www.w3.org/1999/xlink" x="0px" y="0px"
	 viewBox="0 0 319.12 257.65" style="enable-background:new 0 0 319.12 257.65;" xml:space="preserve">
<style type="text/css">
	.st0{fill:#F0AF2D;}
	.st1{fill:#EFAE2E;}
	.st2{fill:#E4AE47;}
	.st3{fill:#EEB138;}
	.st4{fill:#EDB038;}
	.st5{fill:#F1B233;}
	.st6{fill:#EEB136;}
	.st7{fill:#F0B135;}
	.st8{fill:#EEB139;}
	.st9{fill:#F1B132;}
	.st10{fill:#F0B134;}
	.st11{fill:#EFB033;}
	.st12{fill:#CFAB67;}
	.st13{fill:#DFB25B;}
	.st14{fill:#FEFEFE;}
</style>
<g>
	<g>
		<path class="st0" d="M166.5,69.89c2.49,0.62,4.41,0.7,5.9,1.56c2.6,1.5,4.49,3.14,4.8,6.99c0.61,7.48,2.32,14.9,4.02,22.24
			c2.74,11.81,5.79,23.54,8.84,35.27c0.43,1.66,1.57,3.13,2.93,5.75c1.07-7.39,2.29-13.65,2.84-19.97
			c1.2-13.77,1.72-27.61,3.19-41.35c1.06-9.92,3.12-19.73,4.91-29.56c0.36-2,1.53-3.85,2.3-5.68c8.53,1.97,11.24,6.86,7.56,16.07
			c7.86-4.54,16.24-2.75,20.84-7.48c5.36-1.11,9.71-1.79,13.92-2.95c4.9-1.35,9.68-3.11,14.51-4.7c9.8-3.24,9.8-3.24,15.98,6.41
			c-6.89,2.23-13.51,4.39-20.15,6.5c-1.71,0.55-3.49,0.87-5.2,1.43c-8.89,2.9-8.56,2.93-9.01,12.11
			c-0.71,14.43-1.91,28.84-2.9,43.26c-0.67,9.67-1.31,19.33-2.07,28.99c-0.19,2.44-0.77,4.85-1.16,7.18
			c-9.43,2-12.89-1.6-11.49-10.5c1.68-10.71,2.67-21.54,3.7-32.33c1.15-11.93,2.04-23.88,2.97-35.83c0.18-2.28,0.03-4.58,0.03-7.38
			c-7.09,1.5-13.67,2.83-20.19,4.39c-0.73,0.17-1.52,1.67-1.62,2.61c-0.78,7.89-1.37,15.79-2.08,23.69
			c-0.91,10.11-1.85,20.21-2.82,30.31c-0.71,7.48-1.21,14.99-2.37,22.4c-0.49,3.14-0.65,8.01-5.14,7.96
			c-4.67-0.05-10.45,0.68-13.14-4.88c-2.43-5.02-4.75-10.17-6.37-15.49c-2.86-9.38-5.16-18.92-8.61-28.56
			c-0.8,5.63-1.75,11.24-2.37,16.9c-1.13,10.27-1.98,20.56-3.21,30.81c-0.12,1.02-1.97,2.51-3.12,2.62
			c-7.17,0.68-9.49-1.45-8.61-8.36c2.12-16.59,4.46-33.15,6.83-49.7c1.23-8.6,2.69-17.17,4.12-25.74
			C165.32,73.32,165.94,71.8,166.5,69.89z"/>
		<path class="st1" d="M79.27,113.84c12.98-2.33,14.98-0.98,18.61,6.35c-4.1,1.26-8.07,2.65-12.14,3.68
			c-4.95,1.24-8.37,3.4-9.28,9.09c-1.44,9.04-3.57,17.97-5.3,26.44c11.97-3.86,23.86-7.39,35.52-11.57
			c6.93-2.48,11.03,0.89,15.66,5.86c-6.05,1.37-11.6,2.64-17.15,3.89c-13.59,3.07-25.76,8.53-34.96,19.57
			c-2.95,3.55-6.76,0.35-9.97-0.4c-2.76-0.64-2.78-3.01-2.22-5.99c2.09-11.11,3.49-22.36,5.31-33.52c0.57-3.52,2.2-6.89-1.02-10.17
			c-0.62-0.63-0.07-3.75,0.82-4.29c5.4-3.32,4.97-9.01,6.02-13.98c1.32-6.23,2.08-12.58,3.24-19.83c-1.64,0.58-2.78,1.23-3.98,1.34
			c-1.98,0.2-4.49,0.8-5.89-0.12c-2.35-1.55-3.99-4.16-5.94-6.33c2.2-1.57,4.29-3.31,6.61-4.67c3.5-2.06,6.99-4.36,10.8-5.61
			c3.42-1.13,7.29-0.8,10.91-1.44c6.13-1.08,12.26-2.23,18.32-3.67c5.87-1.4,11.39-0.07,14.9,4.22c2.45,3,2.91,7.82,3.73,11.93
			c2.92,14.73,5.61,29.5,8.62,45.46c0.9-1.75,1.39-2.42,1.6-3.17c5.54-19.43,9.06-39.48,17.86-57.89c1.69-3.54,3.94-6.81,5.89-10.22
			c2.46-4.28,5.61-2.83,8.67-0.96c1.47,0.9,2.67,2.24,4.28,3.61c-2.77,4.73-6.24,9.37-8.36,14.55c-3.52,8.57-6.73,17.35-9.06,26.3
			c-4.32,16.6-7.93,33.38-11.79,50.1c-0.41,1.76-0.18,3.71-0.81,5.36c-0.82,2.14,0.75,5.68-3.48,6.04c-4.81,0.4-9.22-1.45-9.99-5.18
			c-2.24-10.87-4.21-21.8-6.16-32.73c-1.56-8.72-2.88-17.47-4.41-26.2c-1.19-6.76-2.53-13.5-3.95-21.01
			c-8.7,1.83-17.16,3.46-25.52,5.52c-1.24,0.31-2.61,2.5-2.86,4c-1.24,7.39-2.15,14.84-3.13,22.27
			C79.16,111.45,79.27,112.45,79.27,113.84z"/>
		<path class="st2" d="M250.66,168.09c-16.98,2.85-33.97,5.66-50.94,8.55c-27.04,4.61-54.07,9.27-81.11,13.89
			c-0.81,0.14-1.65,0.03-2.48,0.04c-1.01-0.64-2.02-1.28-3.03-1.93c8.49-1.65,16.95-3.46,25.47-4.93
			c17.32-2.99,34.66-5.89,52.02-8.64c20.02-3.18,40.08-6.15,60.12-9.22C250.7,166.6,250.68,167.34,250.66,168.09z"/>
		<path class="st3" d="M243.65,0c0,3.74,0.26,7.47-0.07,11.14c-0.33,3.76-0.97,7.54-1.97,11.17c-0.97,3.54-2.58,6.9-3.91,10.34
			c-0.48-0.15-0.97-0.3-1.45-0.45c0.93-4.09,1.87-8.18,2.8-12.28c-0.31-0.09-0.63-0.18-0.94-0.27c-1.42,3.63-2.8,7.28-4.26,10.89
			c-0.61,1.51-1.07,3.33-2.21,4.31c-1.01,0.87-2.86,0.78-4.34,1.11c-0.22-1.12-0.77-2.28-0.61-3.34
			C228.59,19.86,232.52,8.12,243.65,0z"/>
		<path class="st4" d="M283.08,61.77c10.05-11.58,21.1-21.03,36.03-26.05C317.44,44.31,294.61,60.56,283.08,61.77z"/>
		<path class="st5" d="M287.82,2.3c0.51,12.34-7.73,19.51-14.38,27.46c-1.1,1.32-3.57,1.49-5.41,2.19c-0.05-2.06-0.8-4.43-0.04-6.11
			C272.36,16.22,279.04,8.46,287.82,2.3z"/>
		<path class="st6" d="M76.65,257.65c-5.2-3.55-6.26-8.2-4.94-13.25c1.81-6.89,4.24-13.61,6.31-20.43c0.33-1.07-0.11-2.4,0.29-3.43
			c0.55-1.44,1.55-2.71,3.06-3.73C81.98,230.72,80.87,244.13,76.65,257.65z M74.1,250.08c0.66,0.06,1.33,0.12,1.99,0.18
			c0.46-4.62,0.91-9.25,1.37-13.87c-0.42-0.04-0.84-0.09-1.26-0.13C75.5,240.87,74.8,245.48,74.1,250.08z"/>
		<path class="st7" d="M113.1,188.64c1.01,0.64,2.02,1.28,3.03,1.93c-8.74,2.32-17.61,4.23-26.18,7.06
			c-9.51,3.15-18.71,7.22-28.12,10.69c-2.17,0.8-4.63,0.81-6.96,1.19c-0.21-0.82-0.42-1.64-0.63-2.46
			c10.83-4.13,21.51-8.71,32.53-12.23C95.33,192.07,104.31,190.65,113.1,188.64z"/>
		<path class="st8" d="M0,177.63c8.92-9.7,20.65-10.81,32.65-12.13c-0.89,3.01-0.89,3-7.79,5.28c-3.26,1.08-6.5,2.19-9.56,4.22
			c4.88-1.06,9.75-2.11,14.63-3.17C21.08,179.23,10.71,178.51,0,177.63z"/>
		<path class="st9" d="M274.78,85.13c9.52-1.79,17.63-3.57,25.82-4.77c4.42-0.65,9.16-1.14,13.81,3.32
			c-4.18,0.88-7.51,1.88-10.91,2.24c-7.99,0.85-16.01,1.53-24.04,1.95C278.16,87.94,276.77,86.34,274.78,85.13z"/>
		<path class="st10" d="M30.65,255.35c0.27-2.05-0.16-4.66,0.94-6.06c5.5-6.99,11.36-13.7,17.23-20.39
			c0.59-0.68,2.14-0.52,3.24-0.75c0.09,0.92,0.6,2.16,0.19,2.72c-6.23,8.44-12.59,16.78-18.91,25.15
			C32.44,255.8,31.55,255.57,30.65,255.35z"/>
		<path class="st11" d="M4.13,223.84c-3.06-3.29-4.05-5.5,0.28-7.76c5.54-2.9,10.76-6.42,16.25-9.42c1.47-0.8,3.44-0.71,5.18-1.03
			c0.23,0.55,0.46,1.1,0.68,1.65C19.08,212.79,11.63,218.29,4.13,223.84z"/>
		<path class="st12" d="M250.66,168.09c0.02-0.74,0.04-1.49,0.06-2.23c4.44-0.79,8.88-1.57,13.33-2.36
			c-3.63,5.6-8.42,8.74-14.31,10.17c-0.03-0.73-0.06-1.45-0.1-2.18C250.25,170.44,254.11,170.35,250.66,168.09z M254.05,168.17
			c-0.05,0.09-0.17,0.21-0.14,0.26c0.06,0.11,0.19,0.19,0.29,0.29c0.05-0.18,0.11-0.36,0.16-0.55
			C254.25,168.17,254.15,168.17,254.05,168.17z"/>
		<path class="st13" d="M249.64,171.49c0.03,0.73,0.06,1.45,0.1,2.18c-5.38,1.81-10.76,3.62-16.15,5.43
			c-0.18-0.51-0.36-1.02-0.54-1.53C238.59,175.54,244.11,173.51,249.64,171.49z"/>
		<path class="st14" d="M254.05,168.17c0.1,0,0.2,0,0.31,0c-0.05,0.18-0.11,0.36-0.16,0.55c-0.1-0.09-0.23-0.17-0.29-0.29
			C253.88,168.38,254,168.26,254.05,168.17z"/>
	</g>
</g>
</svg>
